<?xml version="1.0" encoding="UTF-8"?>
<!DOCTYPE svg PUBLIC "-//W3C//DTD SVG 1.1//EN" "http://www.w3.org/Graphics/SVG/1.1/DTD/svg11.dtd">
<svg xmlns="http://www.w3.org/2000/svg" xmlns:xlink="http://www.w3.org/1999/xlink" version="1.1" width="257px" height="257px" viewBox="-0.5 -0.5 257 257"><defs/><g><path d="M 8 61.33 L 8 61.33 L 13 52.44 L 18 43.56 L 23 34.67 L 28 25.78 L 33 16.89 L 38 8 L 38 8 L 48 8 L 58 8 L 68 8 L 78 8 L 88 8 L 98 8 L 108 8 L 118 8 L 128 8 L 138 8 L 148 8 L 158 8 L 168 8 L 178 8 L 188 8 L 198 8 L 208 8 L 218 8 L 218 8 L 223 16.89 L 228 25.78 L 233 34.67 L 238 43.56 L 243 52.44 L 248 61.33 L 248 61.33 L 238 61.33 L 228 61.33 L 218 61.33 L 208 61.33 L 198 61.33 L 188 61.33 L 178 61.33 L 168 61.33 L 158 61.33 L 148 61.33 L 138 61.33 L 128 61.33 L 118 61.33 L 108 61.33 L 98 61.33 L 88 61.33 L 78 61.33 L 68 61.33 L 58 61.33 L 48 61.33 L 38 61.33 L 28 61.33 L 18 61.33 L 8 61.33 Z Z" fill="#a2c6f5" stroke="#3c78d8" stroke-width="17" stroke-linejoin="round" stroke-linecap="round" stroke-miterlimit="10" pointer-events="all"/><path d="M 8 61.33 L 8 61.33 L 18 61.33 L 28 61.33 L 38 61.33 L 48 61.33 L 58 61.33 L 68 61.33 L 78 61.33 L 88 61.33 L 98 61.33 L 108 61.33 L 118 61.33 L 128 61.33 L 138 61.33 L 148 61.33 L 158 61.33 L 168 61.33 L 178 61.33 L 188 61.33 L 198 61.33 L 208 61.33 L 218 61.33 L 228 61.33 L 238 61.33 L 248 61.33 L 248 61.33 L 248 71.16 L 248 80.98 L 248 90.81 L 248 100.63 L 248 110.46 L 248 120.28 L 248 130.11 L 248 139.93 L 248 149.75 L 248 159.58 L 248 169.4 L 248 179.23 L 248 189.05 L 248 198.88 L 248 208.7 L 248 218.53 L 248 228.35 L 248 238.18 L 248 248 L 248 248 L 238 248 L 228 248 L 218 248 L 208 248 L 198 248 L 188 248 L 178 248 L 168 248 L 158 248 L 148 248 L 138 248 L 128 248 L 118 248 L 108 248 L 98 248 L 88 248 L 78 248 L 68 248 L 58 248 L 48 248 L 38 248 L 28 248 L 18 248 L 8 248 L 8 248 L 8 238.18 L 8 228.35 L 8 218.53 L 8 208.7 L 8 198.88 L 8 189.05 L 8 179.23 L 8 169.4 L 8 159.58 L 8 149.75 L 8 139.93 L 8 130.11 L 8 120.28 L 8 110.46 L 8 100.63 L 8 90.81 L 8 80.98 L 8 71.16 L 8 61.33 L 8 61.33 Z Z" fill="#a2c6f5" stroke="#3c78d8" stroke-width="17" stroke-linejoin="round" stroke-linecap="round" stroke-miterlimit="10" pointer-events="all"/><path d="M 128 61.33 L 128 61.33 L 128 50.67 L 128 40 L 128 29.33 L 128 18.67 L 128 8" fill="none" stroke="#3c78d8" stroke-width="17" stroke-linejoin="round" stroke-linecap="round" stroke-miterlimit="10" pointer-events="stroke"/><path d="M 94.97 182.03 C 80.1 192.97 59.29 190.82 47 177.06 C 34.72 163.31 35.04 142.51 47.74 129.13 C 60.45 115.76 81.32 114.24 95.84 125.64" fill="none" stroke="#3c78d8" stroke-width="17" stroke-linejoin="round" stroke-linecap="round" stroke-miterlimit="10" pointer-events="none"/><path d="M 161.57 182.4 L 161.57 182.4 L 154.21 176.05 L 146.86 169.7 L 139.5 163.35 L 132.14 156.99 L 124.79 150.64 L 117.43 144.29 L 110.07 137.94 L 102.71 131.59 L 95.36 125.24" fill="none" stroke="#3c78d8" stroke-width="17" stroke-linejoin="round" stroke-linecap="round" stroke-miterlimit="10" pointer-events="none"/><path d="M 160.43 125.42 C 175.02 114.21 195.79 115.87 208.38 129.26 C 220.97 142.66 221.23 163.37 208.99 177.08 C 196.74 190.78 176.01 192.96 161.15 182.12" fill="none" stroke="#3c78d8" stroke-width="17" stroke-linejoin="round" stroke-linecap="round" stroke-miterlimit="10" pointer-events="none"/><path d="M 110 171.25 L 110 171.25 L 106.91 173.47 L 103.83 175.68 L 100.74 177.9 L 97.66 180.11 L 94.57 182.33" fill="none" stroke="#3c78d8" stroke-width="17" stroke-linejoin="round" stroke-linecap="round" stroke-miterlimit="10" pointer-events="none"/><path d="M 160.86 125.1 L 160.86 125.1 L 157.89 127.23 L 154.91 129.36 L 151.94 131.49 L 148.97 133.62 L 146 135.75" fill="none" stroke="#3c78d8" stroke-width="17" stroke-linejoin="round" stroke-linecap="round" stroke-miterlimit="10" pointer-events="none"/></g></svg>