/* XPM */
static char *dummy[]={
"32 32 97 2",
".b c #3c78d8",
".x c #3d78d8",
".S c #3d79d8",
".R c #3e79d8",
"#r c #3f7ad8",
".p c #407bd9",
"#f c #417cd9",
".X c #427cd9",
"#a c #437dda",
".9 c #437eda",
".C c #447ed9",
"#o c #447eda",
".P c #467fda",
"#h c #4780db",
"#k c #4781db",
"#e c #4881db",
"#g c #4a83dc",
".Q c #4c84dc",
".a c #4d84db",
"#w c #4d85dc",
"#q c #4f87dd",
".L c #5087dd",
".D c #5188de",
".t c #5287dc",
".O c #5289de",
"#c c #5389de",
"#p c #538ade",
".E c #548ade",
"#l c #578ddf",
"#v c #588de0",
"#y c #5a8fe0",
".0 c #5c90e1",
".3 c #5e92e1",
".2 c #6093e2",
".l c #6194e2",
".k c #6594e0",
".8 c #6597e3",
"#B c #6799e4",
".K c #689ae4",
".W c #6a9be5",
"#E c #6b98e1",
".7 c #6b9be5",
".1 c #6c9ce5",
".V c #6c9de5",
".u c #6d9ee6",
".v c #6e9ee6",
"#D c #6f9fe6",
"#u c #709fe6",
".y c #75a4e8",
".A c #76a5e8",
"#b c #78a6e9",
".T c #79a7e9",
".z c #7aa7e9",
".e c #7ca4e4",
".d c #7ca4e5",
"#. c #7ca9ea",
"#s c #7da9ea",
"#C c #7daaea",
".5 c #80aceb",
".Y c #81adeb",
"#n c #82adeb",
".G c #84afec",
".g c #86b0ed",
".N c #87b2ed",
".M c #88b2ed",
".F c #89b3ed",
"#z c #8bb4ee",
"## c #8cb5ee",
"#j c #8fb7ef",
"#x c #8fb8ef",
".i c #90b8f0",
"#t c #91b9f0",
".H c #92baf0",
".h c #96bcf1",
".q c #96bdf1",
"#i c #97bef2",
".Z c #98bef2",
"#d c #99bff2",
"#m c #9bc1f3",
".n c #9cc1f3",
".J c #9dc2f3",
".4 c #9ec3f3",
".U c #9fc4f4",
".B c #a0bdec",
".w c #a0beec",
"#A c #a0c4f4",
".6 c #a0c5f4",
".I c #a1c5f4",
".m c #a2c6f5",
".r c #b9cef1",
".o c #b9cff1",
".f c #d1dff5",
".# c #e5edf9",
".s c #f7fafd",
".j c #fdfefe",
".c c #fefefe",
"Qt c #ffffff",
"QtQtQt.#.a.b.b.b.b.b.b.b.b.b.b.b.b.b.b.b.b.b.b.b.b.b.b.a.#QtQtQt",
"QtQt.c.d.b.b.b.b.b.b.b.b.b.b.b.b.b.b.b.b.b.b.b.b.b.b.b.b.e.cQtQt",
"QtQt.f.b.b.g.h.h.h.h.h.h.h.h.i.b.b.i.h.h.h.h.h.h.h.h.g.b.b.fQtQt",
"Qt.j.k.b.l.m.m.m.m.m.m.m.m.m.n.b.b.n.m.m.m.m.m.m.m.m.m.l.b.k.jQt",
"Qt.o.b.p.q.m.m.m.m.m.m.m.m.m.n.b.b.n.m.m.m.m.m.m.m.m.m.q.p.b.rQt",
".s.t.b.u.m.m.m.m.m.m.m.m.m.m.n.b.b.n.m.m.m.m.m.m.m.m.m.m.v.b.t.s",
".w.b.x.y.z.z.z.z.z.z.z.z.z.z.A.b.b.A.z.z.z.z.z.z.z.z.z.z.y.x.b.B",
".C.b.b.b.b.b.b.b.b.b.b.b.b.b.b.b.b.b.b.b.b.b.b.b.b.b.b.b.b.b.b.C",
".b.b.D.E.E.E.E.E.E.E.E.E.E.E.E.E.E.E.E.E.E.E.E.E.E.E.E.E.E.D.b.b",
".b.b.h.m.m.m.m.m.m.m.m.m.m.m.m.m.m.m.m.m.m.m.m.m.m.m.m.m.m.h.b.b",
".b.b.h.m.m.m.m.m.m.m.m.m.m.m.m.m.m.m.m.m.m.m.m.m.m.m.m.m.m.h.b.b",
".b.b.h.m.m.m.m.m.m.m.m.m.m.m.m.m.m.m.m.m.m.m.m.m.m.m.m.m.m.h.b.b",
".b.b.h.m.m.m.m.m.m.m.m.m.m.m.m.m.m.m.m.m.m.m.m.m.m.m.m.m.m.h.b.b",
".b.b.h.m.m.m.m.n.F.G.H.I.m.m.m.m.m.m.m.m.I.H.G.F.n.m.m.m.m.h.b.b",
".b.b.h.m.m.J.K.p.b.b.b.L.M.m.m.m.m.m.m.N.L.b.b.b.p.K.J.m.m.h.b.b",
".b.b.h.m.J.O.b.b.P.Q.R.b.S.T.I.m.m.U.V.S.b.R.Q.P.b.b.O.J.m.h.b.b",
".b.b.h.m.W.b.X.Y.I.m.Z.0.b.b.1.I.m.2.b.b.3.Z.m.I.Y.X.b.W.m.h.b.b",
".b.b.h.4.p.b.5.m.m.m.m.6.7.b.b.3.4.8.9#..I.m.m.m.m.5.b.p.4.h.b.b",
".b.b.h##.b#a.I.m.m.m.m.m.I#b.S.b#c#d.U.m.m.m.m.m.m.6#a.b##.h.b.b",
".b.b.h.M.b#e.m.m.m.m.m.m.m.m.G#f.b#g.H.m.m.m.m.m.m.m#h.b.F.h.b.b",
".b.b.h.Z.b.b.H.m.m.m.m.m#i.8.Y#j#k.b#a.M.m.m.m.m.m.H.b.b.Z.h.b.b",
".b.b.h.I#l.b#c#m.m.m.I#n#o.b#p.m.q#q.b#r#s.I.m.m#m#c.b#l.I.h.b.b",
".b.b.h.m#t#f.b.P.K#u#v.b.b#w#x.m.m.n#y.b.b#v#u.K.P.b#f#t.m.h.b.b",
".b.b.h.m.m#z#e.b.b.b.b.x.8.J.m.m.m.m#A#B.x.b.b.b.b#e#z.m.m.h.b.b",
".b.b.h.m.m.m.4#C.8.l#D#t.I.m.m.m.m.m.m.I#t#D.l.8#s.4.m.m.m.h.b.b",
".b.b.h.m.m.m.m.m.m.m.m.m.m.m.m.m.m.m.m.m.m.m.m.m.m.m.m.m.m.h.b.b",
".b.b.h.m.m.m.m.m.m.m.m.m.m.m.m.m.m.m.m.m.m.m.m.m.m.m.m.m.m.h.b.b",
".b.b.h.m.m.m.m.m.m.m.m.m.m.m.m.m.m.m.m.m.m.m.m.m.m.m.m.m.m.h.b.b",
".b.b.h.m.m.m.m.m.m.m.m.m.m.m.m.m.m.m.m.m.m.m.m.m.m.m.m.m.m.h.b.b",
".b.b#z.h.h.h.h.h.h.h.h.h.h.h.h.h.h.h.h.h.h.h.h.h.h.h.h.h.h#z.b.b",
".b.b.b.b.b.b.b.b.b.b.b.b.b.b.b.b.b.b.b.b.b.b.b.b.b.b.b.b.b.b.b.b",
"#E.b.b.b.b.b.b.b.b.b.b.b.b.b.b.b.b.b.b.b.b.b.b.b.b.b.b.b.b.b.b#E"};
